<svg xmlns="http://www.w3.org/2000/svg" width="64" height="64" fill="currentColor" viewBox="0 0 468 468">
    <path d="M450 188l-10-11-36-97c-6-16-22-27-39-27H109c-17 0-33 11-39 27l-35 96-15 13a57 57 0 0 0-20 44v140c0 23 19 42 42 42h26c23 0 42-19 42-42v-20h248v20c0 23 19 42 42 42h26c23 0 42-19 42-42V229c0-16-6-31-18-41zM89 87c3-8 11-14 20-14h256c9 0 17 6 20 14l32 84h-24a68 68 0 0 0-135 0H58l31-84zm284 84h-95a49 49 0 0 1 95 0zM90 373c0 12-10 22-22 22H42c-12 0-22-10-22-22v-26c6 4 14 6 22 6h48v20zm358 0c0 12-10 22-22 22h-26c-12 0-22-10-22-22v-20h48c8 0 16-2 22-6v26zm-22-40H42c-12 0-22-9-22-21v-79c0-11 5-22 13-29h1l13-13h379l10 10v1c8 7 12 17 12 27v83c0 12-10 21-22 21z"/>
    <path d="M132 231H57c-5 0-10 5-10 10v52c0 6 5 10 10 10h75c6 0 10-4 10-10v-52c0-5-4-10-10-10zm-10 52H67v-32h55v32zm289-52h-75c-5 0-10 5-10 10v52c0 6 5 10 10 10h75c6 0 10-4 10-10v-52c0-5-4-10-10-10zm-10 52h-55v-32h55v32zm-119-10h-96a10 10 0 0 0 0 20h96c6 0 10-4 10-10s-4-10-10-10zm0-31h-96a10 10 0 0 0 0 20h96c6 0 10-4 10-10s-4-10-10-10z"/>
</svg>