<svg xmlns="http://www.w3.org/2000/svg" width="64" height="64" fill="currentColor" viewBox="0 -1 512 511">
    <path d="M380.6 204l30-1.9h.2a70.8 70.8 0 0 0 52.8-30.8l23.8-34.9c20.7-30.4 28.7-67 22.6-103.3a31.9 31.9 0 0 0-29.8-26.4 140.8 140.8 0 0 0-99.9 34.8l-31.8 27.8a70.8 70.8 0 0 0-24.2 56v.3l1.7 30a42.4 42.4 0 0 1-11.8 31.8L66 442.5a36 36 0 0 0-9.7 26.8 43 43 0 0 0 14 29.9 42.9 42.9 0 0 0 31.3 10.3 36 36 0 0 0 25.5-12.9l223.5-277a42.4 42.4 0 0 1 30-15.6zm-42 5.9L115 486.9a20.9 20.9 0 0 1-14.8 7.3c-7.3.6-14.7-1.8-20-6.5a27.3 27.3 0 0 1-8.8-19 20.9 20.9 0 0 1 5.4-15.5L325.2 198a57.8 57.8 0 0 0 16.1-43.3l-1.7-30a55.6 55.6 0 0 1 19-44L390.4 53a125.6 125.6 0 0 1 89-31A16.5 16.5 0 0 1 495 35.7c5.4 32.3-1.7 65-20.2 92l-23.8 35a55.6 55.6 0 0 1-41.3 24.1l-30 2c-16 1-31 8.6-41 21.1zm0 0"/>
    <path d="M497.8 440.6L331.3 288.9a7.7 7.7 0 1 0-10.3 11.3L487.4 452c4 3.6 6.2 9 6.4 15.2.1 7.3-2.7 14.6-7.7 19.5-5 5-12.2 7.8-19.5 7.7a20.9 20.9 0 0 1-15.2-6.3L303 325a7.7 7.7 0 1 0-11.3 10.4l148.4 163a36 36 0 0 0 26.2 11.2h.8a43 43 0 0 0 29.9-12.1 43 43 0 0 0 12.1-30.7 36.1 36.1 0 0 0-11.3-26.2zm0 0M92.6 202.6a71 71 0 0 0 46.6 18.8h30.2c11.7.1 23 5.1 31 13.7l13.2 14.6a7.6 7.6 0 0 0 10.9.5 7.7 7.7 0 0 0 .5-10.8l-13.3-14.6a57.8 57.8 0 0 0-42.3-18.7h-30a55.8 55.8 0 0 1-36-14.5L16 87.8a2.6 2.6 0 0 1 2-4.4c.4 0 1.2.1 2 .8l79.4 79.5a20.2 20.2 0 0 0 28.5 0l9.4-9.3 16.6-16.6 9.3-9.4a20.2 20.2 0 0 0 0-28.5L83.7 20.4a2.7 2.7 0 0 1 3.6-3.9L191 104c9 9.8 14 22.6 14.4 36l.1 30c0 16 6.9 31.5 18.7 42.3l14.2 13a7.7 7.7 0 1 0 10.4-11.4l-14.2-13a42.4 42.4 0 0 1-13.7-31l-.1-30v-.2a71 71 0 0 0-19.5-47.2L97.2 4.8a18 18 0 0 0-24.3 26.5l79.5 79.5c1.8 1.8 1.8 4.9 0 6.8l-4 3.9-88.6-88.6A7.7 7.7 0 1 0 49 43.7l88.6 88.6-5.8 5.8-88.6-88.6a7.7 7.7 0 0 0-10.8 10.8L121 149l-4 4a4.8 4.8 0 0 1-6.7 0L30.8 73.3a17.9 17.9 0 0 0-25.5 0 17.9 17.9 0 0 0-1 24.4l87.6 104.2.7.7zm0 0"/>
</svg>