<svg xmlns="http://www.w3.org/2000/svg" height="64" width="64" fill="currentColor" viewBox="-16 0 479 480">
    <path d="M225 48c-5 0-8 4-8 8v26l-43 14-79 16-3 1-88 56c-4 3-5 8-2 11l56 88a8 8 0 0 0 12 2l19-17v219c0 4 3 8 8 8h256c4 0 8-4 8-8V255l18 15c2 2 4 2 7 2 2 0 4-2 5-3l56-80c3-4 2-9-2-11l-88-64-3-2-79-16-42-14V63a32 32 0 1 0-40-31 8 8 0 0 0 16 0 16 16 0 1 1 16 16zm0 48l39 14a40 40 0 0 1-79 0zm204 90l-46 66-25-20a8 8 0 0 0-13 6v226H105V235a8 8 0 0 0-14-6l-25 23-46-74 80-50 69-14a56 56 0 0 0 111 0l69 14zm0 0"/>
</svg>