<svg xmlns="http://www.w3.org/2000/svg" width="64" height="64" fill="currentColor" viewBox="0 0 512 512">
	<path d="M265.5 346a10 10 0 1 0 0 20 10 10 0 0 0 0-20zM231.6 337.2a70.1 70.1 0 0 1-36.1-61.2 10 10 0 1 0-20 0 90.1 90.1 0 0 0 46.4 78.7 10 10 0 0 0 13.6-3.9 10 10 0 0 0-3.9-13.6z"/>
	<path d="M426 0H326a10 10 0 0 0-9.9 8.4L301 100h-5.3c-2-25.5-12.9-49.2-31-67.5A109.8 109.8 0 0 0 186.7 0h-.1-.6A110.8 110.8 0 0 0 76 109.8v1.2a109.3 109.3 0 0 0 68.2 101.8 232.4 232.4 0 0 0-8.7 61.3v1.9c0 34.7 13.5 67.4 38 92a129.1 129.1 0 0 0 62 34.5V492h-70a10 10 0 0 0 0 20h200a10 10 0 0 0 0-20h-70v-89.5a130.2 130.2 0 0 0 100-126.5v-.8c0-13.5-1.3-28.7-3.6-43a10 10 0 0 0-.9-5.5c-1.8-10.1-4-19.4-6.7-27.7L355 107a10 10 0 0 0-9.5-7h-24.3l13.3-80H426a10 10 0 1 0 0-20zM275.5 100h-64L257 54.1a87.7 87.7 0 0 1 18.5 45.9zm-79-79.4c17.2 2 33.2 8.6 46.5 19.3l-46.5 46.8v-66zm-3.6 99.4h104.7L281 221H162.7l3-10.2v-.1L193 120zm-16.4-99.5v66.9l-47-47a88.4 88.4 0 0 1 47-19.9zm-61 34.2L161 100H96.7c2-16.6 8.5-32.2 18.8-45.3zm-19 65.3h66.7l-1.8 1.4-45.7 45.8A89.1 89.1 0 0 1 96.4 120zm33.3 61.3l34-34-13.8 46.2c-7.2-3.1-14-7.3-20.2-12.2zM275.5 492h-20v-86h20v86zm100-216.7v.7a110.1 110.1 0 0 1-220 0v-1.7c0-11.5 1-22.5 2.8-33.3H373c1.6 11.6 2.5 23.5 2.5 34.3zM338.2 120l27 85.1c1.6 4.8 3 10.2 4.3 15.9h-68.4L318 120h20.3z"/>
</svg>