<svg xmlns="http://www.w3.org/2000/svg" height="64" width="64" fill="currentColor" viewBox="-25 0 504 504.9">
    <path d="M260.6 26.4c0-13.9-11.2-25.2-25.2-25.2H25.6C11.7 1.2.4 12.5.4 26.4v25.2l.1.5v.4L34 363a58.8 58.8 0 0 0 51 57.4l6.2 61.8a25.1 25.1 0 0 0 25 22.7h28.4c13 0 23.8-9.8 25-22.7l6.2-61.8a58.8 58.8 0 0 0 51.2-57.4l33.5-310.5v-.4-.5zm-243.4 0c0-4.6 3.8-8.4 8.4-8.4h209.8c4.7 0 8.4 3.8 8.4 8.4v16.8H17.2zm135.9 454.1c-.5 4.3-4 7.6-8.4 7.6h-28.4c-4.3 0-7.9-3.3-8.3-7.6l-6-59.6h57zm15.2-76.4H92.8a42 42 0 0 1-41.2-33.5h157.8a42 42 0 0 1-41.1 33.5zm42.8-50.3H49.9L18.2 60h224.7zm0 0"/>
    <path d="M48.8 187.8c2.5 6 5.5 11.6 9 17 1.7 2.8 3.4 5.5 5 8.4a67.8 67.8 0 0 1 8.2 24.4c1 10.9 2.9 21.6 5.6 32.2 2 7.5 6.8 25.2 22.9 25.2 8.8 0 19.7-6.5 27-57.6.9-6.6 2.7-8 4-8.4 1.4.4 3.2 1.8 4.1 8.4 7.2 51 18.2 57.6 27 57.6 16 0 20.9-17.7 22.9-25.2a207 207 0 0 0 5.5-32.2 68 68 0 0 1 8.4-24.4c1.5-2.9 3.2-5.6 4.8-8.4 3.5-5.4 6.6-11 9-17 8.8-22 11-52.5-9-71.5a60 60 0 0 0-72.6-3.8 60 60 0 0 0-72.7 3.8c-20 19-17.9 49.4-9.1 71.5zm20.6-59.3a43.2 43.2 0 0 1 55.5.6l.3.2.2.2a70.2 70.2 0 0 1 22.1 28.4 8.4 8.4 0 1 0 16.1-4.8 74.5 74.5 0 0 0-19.5-29.3 42.9 42.9 0 0 1 47.6 4.7c14 13.2 11.4 37 5 53.1-2.2 5-4.8 9.9-7.8 14.5l-5.3 9a84.2 84.2 0 0 0-10.3 30.6c-.8 10-2.5 20-5 29.7-.8 3.1-3 10.8-5.7 12.5-2.3-3.2-7.4-14.7-11.3-42.8-2.6-17.4-12.2-22.1-19.8-23l-1 .1h-1c-7.6.8-17.2 5.5-19.7 22.9-4 28.1-9 39.6-11.4 42.8-2.7-1.7-4.8-9.4-5.7-12.6-2.4-9.7-4.1-19.6-5-29.6a84.1 84.1 0 0 0-10.2-30.5l-5.3-9.1c-3-4.6-5.6-9.4-7.8-14.5-6.4-16.2-9-39.8 5-53zm0 0"/>
    <path d="M85 177.5c.6 0 1.2 0 1.8-.2a8.4 8.4 0 0 0 6.4-10 17.8 17.8 0 0 1 8.4-19.4 8.4 8.4 0 0 0-8-14.8A34.8 34.8 0 0 0 76.8 171a8.4 8.4 0 0 0 8.2 6.6zm0 0M424.3 504.9a29.4 29.4 0 0 0 29.4-29.4V55.8a29.3 29.3 0 0 0-55.8-12.6h-45v-.5c0-14.5-7-39.3-54.8-42.6a19 19 0 0 0-17.8 9c-3 5.1-2.8 11.5.6 16.4 3.3 5 5 11 4.9 17.2v143.8c0 14.5 7.1 39.3 55 42.6h1.3c6.7.1 13-3.4 16.4-9 3-5.2 2.8-11.6-.6-16.5-2-2.8-3.3-6-4-9.3h41v281.2a29.4 29.4 0 0 0 29.4 29.4zm-29.4-394.5h-42V93.6h42zM353 127h42V144h-42zm71.4-83.9c7 0 12.6 5.7 12.6 12.6v419.7a12.6 12.6 0 0 1-25.2 0V55.8c0-7 5.6-12.6 12.6-12.6zM394.9 60v16.8h-42V60zm-53 152.3c-26.1-1.8-39.3-10.4-39.3-25.8V42.7c.1-9.1-2.4-18-7.2-25.6l1.5-.3c26 1.8 39.3 10.5 39.3 25.9v143.8c-.2 9 2.3 18 7.1 25.6-.4.2-1 .2-1.4.2zm11-34.8v-16.8h42v16.8zm0 0"/>
</svg>