<svg xmlns="http://www.w3.org/2000/svg" width="64" height="64" fill="currentColor" viewBox="0 0 512 512">
	<path d="M126 126a10 10 0 1 0 0 20 10 10 0 0 0 0-20zM216 313h-30v-30a10 10 0 0 0-20 0v30h-30a10 10 0 0 0 0 20h30v30a10 10 0 0 0 20 0v-30h30a10 10 0 0 0 0-20z"/>
	<path d="M486 322a80 80 0 0 0-110-29l-40 23v-87c0-10-4-21-10-30l-50-66v-29c11-4 20-15 20-28V30c0-17-14-30-30-30H86C69 0 56 13 56 30v46c0 13 8 24 20 28v29l-50 66c-7 9-10 20-10 30v194c0 28 22 50 50 50h160c23 38 71 50 109 28l121-70c38-22 52-71 30-109zM76 30c0-6 4-10 10-10h180c5 0 10 4 10 10v46c0 6-5 10-10 10H86c-6 0-10-4-10-10V30zM42 211l52-69 2-6v-30h160v20h-90a10 10 0 0 0 0 20h95l49 65c3 5 5 10 5 15H36l6-15zm24 242c-17 0-30-13-30-30v-10h181c-3 13-3 27 1 40H66zm159-60H36V246h280v82l-61 35c-13 7-23 17-30 30zm100 91a60 60 0 1 1-60-104l54-31 60 104-54 31zm121-70l-49 29-60-104 49-29a60 60 0 1 1 60 104z"/>
</svg>