<svg xmlns="http://www.w3.org/2000/svg" width="64" height="64" viewBox="0 0 478.9 478.9" fill="currentColor">
    <path d="M406.9 160H6.9C3 160 0 163 0 167v192c0 3.8 3 6.8 6.8 6.8h272a6.9 6.9 0 0 0 0-13.7h-265V173.7H400V191c0 3.8 3 6.8 6.8 6.8s7-3 7-6.8v-24c0-3.8-3.1-6.9-7-6.9zM360.4 128.2l-320-72a6.9 6.9 0 0 0-8.2 5.2l-16 72a6.9 6.9 0 0 0 13.4 3L44 71l313.3 70.5 1.5.1a6.9 6.9 0 0 0 1.5-13.5zM321.5 88.5l-192-80a6.9 6.9 0 0 0-8.8 3.3l-16 32a6.9 6.9 0 1 0 12.3 6.1l13.1-26.2 186.1 77.5a6.9 6.9 0 0 0 5.3-12.7z"/>
    <path d="M326.4 192h-63.5a6.9 6.9 0 0 0 0 13.7h63.5a6.9 6.9 0 0 0 0-13.7zM198.9 192.5a70.4 70.4 0 1 0 0 140.8 70.4 70.4 0 0 0 0-140.8zm0 128a57.6 57.6 0 1 1 0-115.2 57.6 57.6 0 0 1 0 115.2zM390.9 214.9c-42.4 0-88 10-88 32v192c0 22 45.6 32 88 32s88-10 88-32v-192c0-22-45.6-32-88-32zm72 223.9c-1.3 4.4-25.2 16-72 16s-70.8-11.6-72-16v-12.5c17 8.6 45.1 12.6 72 12.6 26.8 0 55-4 72-12.6v12.5zm0-32c-1.3 4.4-25.2 16-72 16s-70.8-11.6-72-16v-12.5c17 8.6 45.1 12.6 72 12.6 26.8 0 55-4 72-12.6v12.5zm0-32c-1.3 4.4-25.2 16-72 16s-70.8-11.6-72-16v-12.5c17 8.6 45.1 12.6 72 12.6 26.8 0 55-4 72-12.6v12.5zm0-32c-1.3 4.4-25.2 16-72 16s-70.8-11.6-72-16v-12.5c17 8.6 45.1 12.6 72 12.6 26.8 0 55-4 72-12.6v12.5zm0-32c-1.3 4.4-25.2 16-72 16s-70.8-11.6-72-16v-12.5c17 8.5 45.1 12.6 72 12.6 26.8 0 55-4 72-12.6v12.5zm0-32c-1.3 4.4-25.2 16-72 16s-70.8-11.6-72-16v-12.5c17 8.5 45.1 12.6 72 12.6 26.8 0 55-4 72-12.6v12.5zm-72-16c-46.8 0-70.8-11.6-72-15.8 1.2-4.5 25.2-16.1 72-16.1 46.4 0 70.4 11.4 72 16-1.6 4.5-25.6 16-72 16z"/>
    <path d="M134.9 320H74.4l-28.7-31.4v-52l31.7-30.9h57.5a6.9 6.9 0 0 0 0-13.7H74.6c-1.8 0-3.5.7-4.8 2L34 228.8a8.6 8.6 0 0 0-2.1 5.6v57c0 1.6.6 3.3 1.8 4.5l32.5 35.6a6.9 6.9 0 0 0 5 2.2H135a6.9 6.9 0 0 0 0-13.7zM202.9 254.9h-8c-2.5 0-4-1.4-4-2 0-.6 1.5-2 4-2h20a8 8 0 0 0 0-16h-8a8 8 0 0 0-16 0v.3a18.6 18.6 0 0 0-16 17.6 19.1 19.1 0 0 0 20 18h8c2.4 0 4 1.5 4 2 0 .7-1.6 2-4 2h-20a8 8 0 0 0 0 16h8a8 8 0 0 0 16 0v-.3a18.6 18.6 0 0 0 16-17.6 19.1 19.1 0 0 0-20-18z"/>
</svg>