<svg xmlns="http://www.w3.org/2000/svg" width="64" height="64" fill="currentColor" viewBox="0 0 432 432">
	<path d="M216 85c-62 0-113 51-113 113 1 41 20 79 53 102v82l1 3v1l29 42c1 2 4 4 6 4h47c2 0 5-2 6-4l29-42v-1l1-3v-82c33-23 52-61 53-102 0-62-50-112-112-113zm19 331h-38l-18-26h73l-17 26zm-63-42v-21h87v21h-87zm91-84c-2 1-4 4-4 6v41h-87v-41c0-3-1-5-3-7-31-20-49-54-50-91a97 97 0 0 1 194 0c-1 37-19 71-50 92z"/>
	<path d="M219 121a8 8 0 0 0 0 16c33 0 60 27 60 61a8 8 0 0 0 16 0c0-42-34-77-76-77zM81 190H24a8 8 0 0 0 0 16h57c5 0 8-4 8-8 0-5-3-8-8-8zM408 190h-58a8 8 0 0 0 0 16h58a8 8 0 0 0 0-16zM127 287a8 8 0 0 0-12 0l-41 41a8 8 0 1 0 12 11l40-41c4-2 4-8 1-11zM357 56c-3-3-8-3-11 0l-41 41a8 8 0 0 0 6 14v-1c2 0 4 0 6-2l40-41c3-3 3-8 0-11zM359 330l-2-2-40-41a8 8 0 1 0-12 11l41 41a8 8 0 0 0 13-9zM126 97L86 56a8 8 0 0 0-12 11l41 41a8 8 0 0 0 11-11zM216 0c-5 0-8 4-8 8v58a8 8 0 1 0 16 0V8c0-4-4-8-8-8z"/>
</svg>