<svg xmlns="http://www.w3.org/2000/svg" width="64" height="64" fill="currentColor" viewBox="0 0 480 480">
	<path d="M452 104h-32c-4 0-8 4-8 8v8c0-4-4-8-8-8h-24c-4 0-8 3-8 7l-1 9h-15v-16c0-4-4-8-8-8h-32c-4 0-8 4-8 8v48c0 4 4 8 8 8h32c4 0 8-4 8-8v-16h14l-4 65c-1 9-8 15-16 15h-50v-3c0-4-2-6-5-8-10-5-22-8-34-10h-4l-13-3v-21l7-4c27-19 49-38 49-79v-8a88 88 0 0 0-141-71 64 64 0 0 0-75 63v120c0 4 4 8 8 8 31 0 60-12 82-33l6 4v21l-14 3h-3c-12 2-24 5-34 10-3 2-5 4-5 8-30 34-47 77-48 123 0 22 1 47 8 64H68v-16c0-4-4-8-8-8H28c-4 0-8 4-8 8v48c0 4 4 8 8 8h32c4 0 8-4 8-8v-16h46c-9 17-14 36-14 56h16c0-14 3-27 8-40 0 4 4 8 8 8h32c4 0 8-4 8-8v-32h100l5 6c15 19 23 42 23 66h16c0-28-9-55-27-76l-6-8-3-9c-7-22-7-47 2-69l1-1c9-3 16-12 17-22v-1l87-18c14-3 25-16 25-31v-85c0 4 4 8 8 8h32c4 0 8-4 8-8v-48c0-4-4-8-8-8zm-112 48h-16v-32h16v32zM52 432H36v-32h16v32zm62-27l1 3h-14c-4-6-9-23-9-64 1-35 12-69 32-98v48c-11 24-14 86-10 111zm93-389c38-2 72 25 76 63l-43-22-5-1-93 17c6-32 33-55 65-57zM100 192V80c0-25 19-45 44-48a88 88 0 0 0-20 56v8c0 35 16 53 37 70-17 15-38 24-61 26zm40-96v-7l95-17 49 25c0 30-14 45-42 64a52 52 0 0 1-60 0c-28-20-42-35-42-65zm32 122l16-2c4 0 8-4 8-8v-23c10 2 22 2 32 0v23c0 4 4 8 8 8l16 2v13l-40 9-40-9v-13zm-44 167c0-24 2-48 7-71l6 3c8 22 9 45 1 67h-10l-4 1zm28 47h-16v-32h16v32zm16-40c0-4-4-8-8-8h-5c6-21 6-43 0-64h105c-7 23-7 49 1 72h-93zm112-97c0 4-7 9-16 9H156c-9 0-16-5-16-9v-69l16-5v16c0 4 3 7 6 8l48 11h4l48-11c3-1 6-4 6-8v-16l16 5v69zm99-35l-83 18v-38h50c17 0 31-13 32-29l5-83h9v117c0 7-5 14-13 15zm61-108h-16v-32h16v32z"/>
</svg>