<svg xmlns="http://www.w3.org/2000/svg" width="64" height="64" fill="currentColor" viewBox="0 0 512 512">
	<path d="M366 201.6h-18.4a8.6 8.6 0 0 0 0 17.2H366a8.6 8.6 0 0 0 0-17.2zM368.2 272.6a17.6 17.6 0 0 0-14-6.9H157.8a17.6 17.6 0 0 0-17.2 22.1l4.5 18.3c2 8 9.1 13.5 17.3 13.5h187.2c8.2 0 15.3-5.6 17.3-13.5l4.5-18.3c1.4-5.3.2-10.9-3.2-15.2zm-13.4 11l-4.6 18.4c0 .2-.3.4-.6.4H162.4a.6.6 0 0 1-.6-.4l-4.6-18.4.1-.5c.1-.3.4-.2.5-.2h196.4c.1 0 .3 0 .5.2s.1.4 0 .5z"/>
	<path d="M485 218.8a27 27 0 0 0 0-53.9h-9a27 27 0 0 0-26.7 22.7l-22.9-63a36.2 36.2 0 0 0-33.9-23.8h-65.3l-4.9-24.2A27 27 0 0 0 296 55h-80a27 27 0 0 0-26.4 21.6l-4.8 24.2h-65.3a36.2 36.2 0 0 0-34 23.7l-22.8 63A27 27 0 0 0 36 165h-9.2a27 27 0 0 0 0 53.9h9.2c4.2 0 8.2-1 11.8-2.8l-19.7 24.6c-6.4 8-9.9 18-9.9 28.3v170.4c0 9.8 8 17.7 17.8 17.7h27.5c9.8 0 17.7-8 17.7-17.7V402h349.4v37.3c0 9.8 8 17.7 17.7 17.7H476c9.8 0 17.8-8 17.8-17.7V268.9c0-10.3-3.5-20.3-10-28.3L464.2 216c3.6 1.8 7.6 2.8 11.8 2.8h9.2zM36 201.6h-9a9.7 9.7 0 0 1 0-19.5h9a9.7 9.7 0 0 1 0 19.5zM206.6 80c.9-4.5 5-7.8 9.5-7.8h80c4.6 0 8.6 3.3 9.5 7.8l4.2 20.8H202.3l4.2-20.8zM64.1 439.3c0 .3-.2.5-.5.5H36a.6.6 0 0 1-.6-.5v-42.6c5.5 3.4 12 5.3 19 5.3H64v37.3zm293.3-54.4H154.6v-19c0-.3.3-.5.6-.5h201.6c.3 0 .6.2.6.6v18.9zm119 54.4c0 .3-.2.5-.5.5h-27.5a.6.6 0 0 1-.5-.5V402h9.7c7 0 13.4-2 18.9-5.3v42.6zm-6-188c4 5 6 11.2 6 17.6v97a19 19 0 0 1-18.8 19h-83v-19c0-9.7-8-17.7-17.8-17.7H155.2c-9.8 0-17.7 8-17.7 17.8v18.9h-83a19 19 0 0 1-19-19v-97c0-6.4 2.2-12.6 6.2-17.6l26-32.5H311a8.6 8.6 0 0 0 0-17.2H75.8l26-71.2a19 19 0 0 1 17.7-12.4h273c8 0 15 5 17.8 12.4l25.9 71.2h-33.6a8.6 8.6 0 0 0 0 17.2h41.7l26 32.5zm-4.2-59.4c0-5.4 4.4-9.8 9.7-9.8h9.2a9.7 9.7 0 0 1 0 19.5h-9.2a9.7 9.7 0 0 1-9.7-9.7z"/>
	<path d="M91 329.9a17.8 17.8 0 1 0 .1 35.5 17.8 17.8 0 0 0 0-35.5zM421 329.9a17.8 17.8 0 1 0 0 35.5 17.8 17.8 0 0 0 0-35.5zM86.5 256.6a31.5 31.5 0 1 0 0 63 31.5 31.5 0 0 0 0-63zm0 45.8a14.3 14.3 0 1 1 0-28.7 14.3 14.3 0 0 1 0 28.7zM425.5 256.6a31.5 31.5 0 1 0 0 63 31.5 31.5 0 0 0 0-63zm0 45.8a14.3 14.3 0 1 1 0-28.7 14.3 14.3 0 0 1 0 28.7z"/>
</svg>