<svg xmlns="http://www.w3.org/2000/svg" width="64" height="64" viewBox="0 0 504 504" fill="currentColor">
	<path d="M344 269c-5 0-8 4-8 8v202c0 4-4 8-9 8H25c-4 0-8-4-8-8V25c0-4 4-8 8-8h302c5 0 9 4 9 8v51a8 8 0 1 0 17 0V25c0-13-12-25-26-25H25C11 0 0 12 0 25v454c0 14 11 25 25 25h302c14 0 26-11 26-25V277c0-4-4-8-9-8z"/>
	<path d="M492 29a42 42 0 0 0-59 0l-56 55L88 373l-1 3-36 83a8 8 0 0 0 11 11l83-36 3-2 289-289 55-55c16-16 16-43 0-59zM75 446l22-52 30 30-52 22zm67-32l-36-35 277-277 36 35-277 277zm289-289l-36-35 14-14 36 36-14 13zm49-49l-24 24-35-36 24-23a25 25 0 0 1 35 35zM277 76H76a8 8 0 1 0 0 17h201a8 8 0 1 0 0-17zM285 135c0-5-3-9-8-9H76a8 8 0 1 0 0 17h201c5 0 8-4 8-8zM76 177a8 8 0 1 0 0 16h151a8 8 0 1 0 0-16H76z"/>
</svg>